<svg width="364" height="124" viewBox="0 0 364 124" fill="none" xmlns="http://www.w3.org/2000/svg">
<path d="M110.023 63.0839C109.639 62.0749 108.666 59.7484 106.497 58.5326C105.585 58.0201 104.485 57.7401 103.115 57.7401H99.3378V72.6098C99.3378 77.2248 99.7861 79.1472 101.9 79.8537V80.7513H89.9909V79.8537C92.105 79.1472 92.5533 77.2248 92.5533 72.6098V54.987C92.5533 54.987 92.5533 54.9138 92.5565 54.796C92.6169 52.1162 92.5946 49.936 92.5724 48.6852C92.5629 48.2014 92.5565 47.8545 92.5533 47.7208C92.5088 45.8366 92.4834 42.5711 92.5501 36.543C92.105 36.4571 89.8923 36.0688 87.953 37.4755C86.6463 38.424 86.1567 39.6844 85.9691 40.1809C85.0281 42.708 85.5018 46.4795 88.042 47.969C88.4839 48.23 89.6062 48.7806 91.3929 48.5419C91.3865 48.7679 91.377 48.9939 91.3706 49.2199C90.6776 49.3981 89.4885 49.6113 88.0483 49.3758C87.581 49.2994 85.95 49.0353 84.6625 47.9722C82.6023 46.2695 82.1636 43.2108 82.6945 40.9065C83.2413 38.5386 84.8786 36.6958 86.6908 35.7632C87.3966 35.4004 88.2359 35.1171 92.6678 35.0121C95.6721 34.9389 97.1728 35.1744 99.1566 35.0407C109.13 34.3756 116.976 37.1955 118.985 41.1357C120.251 43.6182 120.273 46.1421 120.273 46.1421C120.273 52.0398 116.239 56.4606 107.725 57.4854C114.961 58.3193 116.369 61.3302 119.761 69.8568C120.48 71.6646 120.899 72.543 121.592 74.3922C122.301 76.2827 128.809 93.6478 140.731 95.8502C144.171 96.4868 149.541 96.1335 152.317 92.7375C154.339 90.2645 154.571 86.6744 154.587 86.3752C154.692 84.4019 154.275 82.8041 153.938 81.827C154.192 81.6584 154.447 81.4897 154.701 81.321C155.152 82.4413 155.728 84.265 155.75 86.5566C155.757 87.3491 155.731 91.3084 153.347 94.6471C149.207 100.446 141.014 100.083 140.131 100.029C132.23 99.5613 126.988 93.3136 124.54 90.3759C117.024 81.3464 110.316 63.8573 110.023 63.0871V63.0839ZM113.485 47.6794C113.485 42.4884 110.157 36.9122 102.155 36.9122C101.258 36.9122 100.298 36.9758 99.3378 37.1032V56.7152H103.436C110.735 56.7152 113.489 52.6127 113.489 47.6794H113.485Z" fill="white"/>
<path d="M125.719 63.7235C125.719 53.7743 133.047 45.8843 143.688 45.8843C152.17 45.8843 161.606 51.7119 161.606 64.0259C161.606 76.3399 152.119 81.9638 143.688 81.9638C135.256 81.9638 125.719 76.3367 125.719 63.7235ZM156.538 67.9948C155.785 57.2912 149.763 47.1924 141.078 47.1924C134.252 47.1924 130.386 52.5203 130.939 60.6586C131.642 70.7097 138.016 80.4075 146.549 80.4075C154.23 80.4075 156.99 74.6276 156.538 67.9948Z" fill="white"/>
<path d="M163.614 78.3959L163.414 70.8591L164.066 70.7573C166.174 76.4862 170.64 80.907 177.317 80.907C180.779 80.907 183.993 78.695 183.993 74.5766C183.993 69.6529 177.517 67.339 173.502 65.7317C168.332 63.5706 164.015 61.8615 164.015 56.0339C164.015 49.8021 169.035 45.9351 176.916 45.9351C180.63 45.9351 183.942 46.7403 186.553 48.0452L186.753 54.5794L186.2 54.7799C184.143 49.6048 179.876 46.7912 175.006 46.7912C170.99 46.7912 167.827 49.1528 167.827 53.1217C167.827 57.5934 172.898 59.4044 176.913 61.0117C182.032 62.9723 188.107 65.232 188.107 71.2633C188.107 78.1476 181.784 81.9669 176.01 81.9669C170.841 81.9669 166.17 80.3087 163.611 78.399L163.614 78.3959Z" fill="white"/>
<path d="M190.268 81.4608V80.7574C191.924 80.2036 192.277 78.6982 192.277 75.0794V52.6665C192.277 49.0478 191.924 47.5423 190.268 46.9885V46.2852H214.36L214.913 53.3699L214.261 53.5195C212.255 48.5958 209.092 47.0872 203.471 47.0872H197.599V62.1639H202.419C208.542 62.1639 210.3 60.9576 211.101 58.3446H211.804V66.7852H211.101C210.297 64.1722 208.542 62.9659 202.419 62.9659H197.599V78.1412C197.599 79.7485 198.502 80.6524 200.107 80.6524H204.927C209.998 80.6524 213.46 79.1438 215.368 74.0196L216.019 74.1214L215.667 81.4576H190.268V81.4608Z" fill="white"/>
<path d="M234.236 80.7577C235.892 80.2039 236.245 78.6984 236.245 75.0796V47.1925H234.691C230.224 47.1925 227.963 48.4497 226.107 52.4695L225.506 52.3676L225.808 46.2886H251.96L252.262 52.3676L251.658 52.4695C249.802 48.4497 247.541 47.1925 243.074 47.1925H241.618V75.0796C241.618 78.6984 241.971 80.2039 243.628 80.7577V81.461H234.242V80.7577H234.236Z" fill="white"/>
<path d="M252.107 63.7235C252.107 53.7743 259.436 45.8843 270.076 45.8843C278.559 45.8843 287.995 51.7119 287.995 64.0259C287.995 76.3399 278.508 81.9638 270.076 81.9638C261.645 81.9638 252.107 76.3367 252.107 63.7235ZM282.927 67.9948C282.173 57.2912 276.152 47.1924 267.466 47.1924C260.64 47.1924 256.775 52.5203 257.328 60.6586C258.03 70.7097 264.405 80.4075 272.938 80.4075C280.619 80.4075 283.378 74.6276 282.927 67.9948Z" fill="white"/>
<path d="M291.406 80.7574C293.063 80.2036 293.412 78.6982 293.412 75.0794V52.6665C293.412 49.0478 293.063 47.5423 291.406 46.9885V46.2852H301.949C313.394 46.2852 316.004 51.9632 316.004 56.0339C316.004 62.3166 311.486 67.6413 301.195 67.6413H298.734V75.0794C298.734 78.6982 299.084 80.2036 300.744 80.7574V81.4608H291.406V80.7574ZM310.329 57.342C310.329 53.0198 308.221 47.0904 300.289 47.0904C299.787 47.0904 299.084 47.1413 298.734 47.1922V66.8393H300.944C307.519 66.8393 310.329 63.02 310.329 57.342Z" fill="white"/>
<path d="M159.438 93.7619C159.438 91.0979 161.475 89.1724 164.213 89.1724C165.666 89.1724 166.912 89.6943 167.738 90.6651L166.67 91.6708C166.022 90.9706 165.217 90.6269 164.289 90.6269C162.442 90.6269 161.107 91.9254 161.107 93.7619C161.107 95.5983 162.445 96.8969 164.289 96.8969C165.217 96.8969 166.022 96.5531 166.67 95.8402L167.738 96.8587C166.912 97.8262 165.662 98.3514 164.2 98.3514C161.475 98.3514 159.438 96.4258 159.438 93.7619Z" fill="white"/>
<path d="M170.602 89.2998H172.258V96.8206H176.919V98.2242H170.602V89.2998Z" fill="white"/>
<path d="M186.188 96.8334V98.2242H179.502V89.2998H186.01V90.6907H181.158V93.0109H185.463V94.3763H181.158V96.8366H186.188V96.8334Z" fill="white"/>
<path d="M195.089 96.1586H190.632L189.754 98.2242H188.047L192.059 89.2998H193.69L197.715 98.2242H195.982L195.092 96.1586H195.089ZM194.539 94.8569L192.857 90.9548L191.188 94.8569H194.536H194.539Z" fill="white"/>
<path d="M208.04 89.2998V98.2242H206.676L201.761 92.1802V98.2242H200.117V89.2998H201.481L206.396 95.3438V89.2998H208.04Z" fill="white"/>
<path d="M211.703 89.2998H213.36V98.2242H211.703V89.2998Z" fill="white"/>
<path d="M224.96 89.2998V98.2242H223.596L218.681 92.1802V98.2242H217.037V89.2998H218.401L223.316 95.3438V89.2998H224.96Z" fill="white"/>
<path d="M234.713 93.66H236.28V97.2183C235.352 97.9695 234.052 98.3514 232.793 98.3514C230.03 98.3514 227.992 96.4258 227.992 93.7619C227.992 91.0979 230.03 89.1724 232.818 89.1724C234.309 89.1724 235.556 89.6689 236.395 90.6269L235.352 91.6453C234.653 90.9451 233.848 90.6269 232.895 90.6269C230.997 90.6269 229.661 91.9127 229.661 93.7619C229.661 95.611 231 96.8969 232.882 96.8969C233.518 96.8969 234.141 96.7696 234.716 96.4386V93.66H234.713Z" fill="white"/>
<path d="M243.764 97.2791L244.336 95.99C245.048 96.5629 246.183 96.9703 247.277 96.9703C248.666 96.9703 249.251 96.4738 249.251 95.8118C249.251 93.8863 243.954 95.1498 243.954 91.8334C243.954 90.3916 245.099 89.1694 247.544 89.1694C248.615 89.1694 249.734 89.4495 250.51 89.9587L249.989 91.2446C249.187 90.7735 248.307 90.5444 247.531 90.5444C246.154 90.5444 245.595 91.0791 245.595 91.7538C245.595 93.6539 250.879 92.4158 250.879 95.6941C250.879 97.1231 249.722 98.3453 247.277 98.3453C245.887 98.3453 244.501 97.9124 243.764 97.2759V97.2791Z" fill="white"/>
<path d="M260.483 96.8334V98.2242H253.797V89.2998H260.305V90.6907H255.453V93.0109H259.758V94.3763H255.453V96.8366H260.483V96.8334Z" fill="white"/>
<path d="M269.434 98.2242L267.612 95.6112C267.497 95.6239 267.383 95.6239 267.268 95.6239H265.256V98.2242H263.6V89.2998H267.268C269.612 89.2998 271.064 90.4997 271.064 92.473C271.064 93.8257 270.378 94.8187 269.166 95.2897L271.217 98.221H269.434V98.2242ZM267.192 90.7034H265.256V94.2585H267.192C268.645 94.2585 269.395 93.5965 269.395 92.473C269.395 91.3495 268.645 90.7002 267.192 90.7002V90.7034Z" fill="white"/>
<path d="M282.33 89.2998L278.445 98.2242H276.814L272.916 89.2998H274.712L277.679 96.1841L280.67 89.2998H282.327H282.33Z" fill="white"/>
<path d="M284.543 89.2998H286.199V98.2242H284.543V89.2998Z" fill="white"/>
<path d="M289.242 93.7619C289.242 91.0979 291.28 89.1724 294.017 89.1724C295.47 89.1724 296.717 89.6943 297.543 90.6651L296.475 91.6708C295.826 90.9706 295.022 90.6269 294.094 90.6269C292.247 90.6269 290.911 91.9254 290.911 93.7619C290.911 95.5983 292.25 96.8969 294.094 96.8969C295.022 96.8969 295.826 96.5531 296.475 95.8402L297.543 96.8587C296.717 97.8262 295.467 98.3514 294.005 98.3514C291.28 98.3514 289.242 96.4258 289.242 93.7619Z" fill="white"/>
<path d="M307.094 96.8334V98.2242H300.408V89.2998H306.916V90.6907H302.065V93.0109H306.369V94.3763H302.065V96.8366H307.094V96.8334Z" fill="white"/>
<path d="M309.463 97.2791L310.035 95.99C310.747 96.5629 311.882 96.9703 312.976 96.9703C314.365 96.9703 314.95 96.4738 314.95 95.8118C314.95 93.8863 309.654 95.1498 309.654 91.8334C309.654 90.3916 310.798 89.1694 313.243 89.1694C314.311 89.1694 315.434 89.4495 316.209 89.9587L315.688 91.2446C314.887 90.7735 314.006 90.5444 313.23 90.5444C311.854 90.5444 311.294 91.0791 311.294 91.7538C311.294 93.6539 316.578 92.4158 316.578 95.6941C316.578 97.1231 315.421 98.3453 312.976 98.3453C311.587 98.3453 310.2 97.9124 309.463 97.2759V97.2791Z" fill="white"/>
<path d="M8.50457 82.6984C-3.99167 67.218 -2.49731 45.7212 14.0597 32.3259C27.2562 21.6479 49.2599 18.8402 64.7232 37.9955C80.1215 57.0713 72.4946 77.8454 59.3739 88.4619C46.098 99.2013 24.3469 102.323 8.50818 82.702L8.50457 82.6984ZM61.8212 50.5525C47.2061 34.8481 25.1518 26.7141 11.6413 37.645C1.02199 46.2379 1.69697 59.3875 12.7783 71.3591C26.4945 86.1095 48.5922 93.174 61.8681 82.4346C73.8157 72.7684 70.8558 60.3018 61.8212 50.5525Z" fill="#E3B22E"/>
<path d="M51.0459 79.7173C40.6071 88.1621 26.104 87.154 17.0729 75.9629C9.87187 67.0411 7.97687 52.1678 20.8954 41.7175C33.7598 31.307 47.7721 36.4635 54.9334 45.3347C62.1778 54.307 64.2821 69.0105 51.0495 79.7173H51.0459ZM29.3634 43.6797C18.773 53.5591 13.2865 68.4684 20.6572 77.5998C26.4541 84.7799 35.3228 84.321 43.3973 76.8301C53.3452 67.5578 58.1098 52.6232 50.8691 43.6472C44.3502 35.5709 35.9436 37.5728 29.3634 43.6797Z" fill="#E3B22E"/>
<path d="M22.8887 70.8862C17.0629 63.67 17.7595 53.6497 25.4768 47.4056C31.6274 42.4298 41.8857 41.1181 49.0904 50.0471C56.2698 58.9399 52.7108 68.6242 46.5962 73.5711C40.4094 78.5794 30.2702 80.0321 22.8851 70.8862H22.8887ZM47.7404 55.901C40.9292 48.58 30.6456 44.7894 24.3506 49.8845C19.3983 53.8882 19.7159 60.0204 24.8812 65.5997C31.2737 72.4762 41.5753 75.7681 47.7621 70.7634C53.3316 66.2573 51.9491 60.4468 47.7404 55.901Z" fill="#E3B22E"/>
<path d="M24.7864 57.324C26.4865 51.0184 32.4783 47.2784 39.2209 49.0996C44.5956 50.5522 49.5767 55.8641 47.4724 63.6657C45.3752 71.4348 38.3944 73.4078 33.0522 71.9624C27.6451 70.4989 22.6279 65.3171 24.7864 57.324ZM43.5849 65.3099C44.9385 58.4008 42.8485 50.9678 37.3476 49.479C33.0234 48.3082 29.6629 51.022 28.6197 56.2761C27.3455 62.7623 29.7279 70.0002 35.135 71.4637C40.0006 72.779 42.7366 69.5919 43.5849 65.3099Z" fill="#E3B22E"/>
</svg>
