<svg width="18" height="22" viewBox="0 0 18 22" fill="none" xmlns="http://www.w3.org/2000/svg">
<path d="M1.5 8.5C1.5 10.4891 2.29018 12.3968 3.6967 13.8033C5.10322 15.2098 7.01088 16 9 16C10.9891 16 12.8968 15.2098 14.3033 13.8033C15.7098 12.3968 16.5 10.4891 16.5 8.5C16.5 6.51088 15.7098 4.60322 14.3033 3.1967C12.8968 1.79018 10.9891 1 9 1C7.01088 1 5.10322 1.79018 3.6967 3.1967C2.29018 4.60322 1.5 6.51088 1.5 8.5Z" stroke="#1B3552" stroke-width="1.5" stroke-linecap="round" stroke-linejoin="round"/>
<path d="M5.99959 9.167C5.99959 9.167 6.74959 9.167 7.49959 10.5C7.49959 10.5 9.88159 7.167 11.9996 6.5M13.8826 14L14.5526 17.21C14.9826 19.272 15.1986 20.303 14.7556 20.792C14.3136 21.281 13.5456 20.861 12.0096 20.02L9.73559 18.775C9.37259 18.577 9.19159 18.477 8.99959 18.477C8.80759 18.477 8.62659 18.577 8.26359 18.775L5.98959 20.02C4.45359 20.86 3.68559 21.281 3.24359 20.792C2.80159 20.303 3.01659 19.272 3.44659 17.21L4.11659 14" stroke="#1B3552" stroke-width="1.5" stroke-linecap="round" stroke-linejoin="round"/>
</svg>
