<svg width="22" height="22" viewBox="0 0 22 22" fill="none" xmlns="http://www.w3.org/2000/svg">
<path d="M3.72787 15.137C2.18287 13.591 1.40987 12.819 1.12287 11.816C0.834866 10.813 1.08087 9.748 1.57287 7.619L1.85587 6.391C2.26887 4.599 2.47587 3.703 3.08887 3.089C3.70187 2.475 4.59887 2.269 6.39087 1.856L7.61887 1.572C9.74887 1.081 10.8129 0.835001 11.8159 1.122C12.8189 1.41 13.5909 2.183 15.1359 3.728L16.9659 5.558C19.6569 8.248 20.9999 9.592 20.9999 11.262C20.9999 12.933 19.6559 14.277 16.9669 16.966C14.2769 19.656 12.9329 21 11.2619 21C9.59187 21 8.24687 19.656 5.55787 16.967L3.72787 15.137Z" stroke="#1B3552" stroke-width="1.5"/>
<path d="M14.3884 14.39C14.9734 13.803 15.0524 12.933 14.5644 12.444C14.0764 11.955 13.2054 12.035 12.6194 12.621C12.0344 13.207 11.1634 13.286 10.6754 12.798C10.1874 12.31 10.2664 11.439 10.8524 10.854M10.8524 10.854L10.4984 10.5M10.8524 10.854C11.1834 10.522 11.6054 10.354 11.9984 10.357M14.7414 14.743L14.3874 14.389C13.9874 14.79 13.4524 14.954 12.9984 14.86" stroke="#1B3552" stroke-width="1.5" stroke-linecap="round"/>
<path d="M9.02194 9.29324C9.80299 8.51219 9.80299 7.24586 9.02194 6.46481C8.24089 5.68377 6.97456 5.68377 6.19351 6.46481C5.41246 7.24586 5.41246 8.51219 6.19351 9.29324C6.97456 10.0743 8.24089 10.0743 9.02194 9.29324Z" stroke="#1B3552" stroke-width="1.5"/>
</svg>
