<svg width="222" height="76" viewBox="0 0 222 76" fill="none" xmlns="http://www.w3.org/2000/svg">
<path d="M67.1019 38.6644C66.8673 38.046 66.2739 36.62 64.9515 35.8749C64.3951 35.5608 63.7242 35.3891 62.8885 35.3891H60.585V44.5029C60.585 47.3314 60.8584 48.5096 62.1478 48.9427V49.4928H54.8843V48.9427C56.1738 48.5096 56.4472 47.3314 56.4472 44.5029V33.7018C56.4472 33.7018 56.4472 33.6569 56.4491 33.5847C56.4859 31.9422 56.4724 30.606 56.4588 29.8394C56.453 29.5428 56.4491 29.3302 56.4472 29.2483C56.42 28.0935 56.4045 26.092 56.4452 22.3974C56.1738 22.3447 54.8242 22.1067 53.6414 22.9689C52.8445 23.5503 52.5459 24.3227 52.4315 24.6271C51.8576 26.1759 52.1465 28.4875 53.6957 29.4004C53.9653 29.5604 54.6497 29.8979 55.7394 29.7516C55.7356 29.8901 55.7297 30.0286 55.7259 30.1671C55.3032 30.2763 54.578 30.407 53.6996 30.2627C53.4146 30.2158 52.4199 30.0539 51.6346 29.4024C50.3781 28.3588 50.1106 26.4841 50.4344 25.0718C50.7679 23.6205 51.7664 22.491 52.8717 21.9195C53.3021 21.6971 53.814 21.5235 56.517 21.4591C58.3493 21.4142 59.2645 21.5586 60.4744 21.4766C66.557 21.069 71.3424 22.7973 72.5679 25.2123C73.3396 26.7338 73.3532 28.2807 73.3532 28.2807C73.3532 31.8954 70.8926 34.6049 65.7 35.2331C70.1131 35.7442 70.9721 37.5895 73.041 42.8155C73.4792 43.9235 73.7352 44.4619 74.1579 45.5953C74.5902 46.754 78.5594 57.3971 85.8305 58.747C87.9285 59.1371 91.2035 58.9206 92.8962 56.8392C94.1294 55.3235 94.2709 53.1231 94.2806 52.9397C94.3446 51.7302 94.0906 50.751 93.8851 50.1521C94.0402 50.0487 94.1953 49.9454 94.3504 49.842C94.6258 50.5286 94.9767 51.6464 94.9903 53.0509C94.9942 53.5366 94.9787 55.9633 93.5244 58.0096C90.9999 61.5638 86.0031 61.3414 85.4641 61.3083C80.6457 61.0215 77.4483 57.1922 75.9553 55.3917C71.3715 49.8576 67.2803 39.1384 67.1019 38.6663V38.6644ZM69.2134 29.2229C69.2134 26.0413 67.1833 22.6237 62.3029 22.6237C61.7561 22.6237 61.1705 22.6627 60.585 22.7407V34.761H63.0843C67.5362 34.761 69.2154 32.2465 69.2154 29.2229H69.2134Z" fill="#12303F"/>
<path d="M76.6738 39.0565C76.6738 32.9586 81.1432 28.1228 87.633 28.1228C92.8062 28.1228 98.5611 31.6945 98.5611 39.2418C98.5611 46.7891 92.7752 50.236 87.633 50.236C82.4908 50.236 76.6738 46.7872 76.6738 39.0565ZM95.4704 41.6744C95.0108 35.1141 91.3384 28.9245 86.0411 28.9245C81.8781 28.9245 79.5203 32.19 79.8576 37.178C80.2862 43.3383 84.1738 49.2821 89.3781 49.2821C94.0626 49.2821 95.7457 45.7397 95.4704 41.6744Z" fill="#12303F"/>
<path d="M99.7862 48.0493L99.6641 43.43L100.062 43.3676C101.347 46.8789 104.071 49.5884 108.143 49.5884C110.255 49.5884 112.215 48.2327 112.215 45.7085C112.215 42.6907 108.265 41.2725 105.816 40.2874C102.664 38.9629 100.031 37.9154 100.031 34.3436C100.031 30.5241 103.092 28.154 107.899 28.154C110.164 28.154 112.184 28.6475 113.776 29.4473L113.898 33.4521L113.561 33.575C112.306 30.4032 109.704 28.6787 106.734 28.6787C104.285 28.6787 102.355 30.1262 102.355 32.5587C102.355 35.2995 105.448 36.4094 107.897 37.3945C111.019 38.5962 114.724 39.9812 114.724 43.6778C114.724 47.8972 110.868 50.238 107.346 50.238C104.194 50.238 101.345 49.2217 99.7843 48.0513L99.7862 48.0493Z" fill="#12303F"/>
<path d="M116.041 49.9279V49.4968C117.051 49.1574 117.266 48.2347 117.266 46.0167V32.2798C117.266 30.0618 117.051 29.1391 116.041 28.7997V28.3686H130.735L131.072 32.7109L130.675 32.8026C129.451 29.7848 127.522 28.8602 124.094 28.8602H120.512V38.1007H123.452C127.186 38.1007 128.259 37.3614 128.747 35.7599H129.176V40.9332H128.747C128.257 39.3316 127.186 38.5923 123.452 38.5923H120.512V47.8933C120.512 48.8784 121.063 49.4324 122.042 49.4324H124.982C128.074 49.4324 130.186 48.5078 131.349 45.3671L131.747 45.4295L131.532 49.9259H116.041V49.9279Z" fill="#12303F"/>
<path d="M142.858 49.4968C143.868 49.1573 144.083 48.2346 144.083 46.0167V28.9245H143.135C140.411 28.9245 139.032 29.6951 137.9 32.1588L137.533 32.0964L137.717 28.3705H153.668L153.852 32.0964L153.483 32.1588C152.351 29.6951 150.972 28.9245 148.248 28.9245H147.36V46.0167C147.36 48.2346 147.575 49.1573 148.585 49.4968V49.9279H142.862V49.4968H142.858Z" fill="#12303F"/>
<path d="M153.758 39.0565C153.758 32.9586 158.227 28.1228 164.717 28.1228C169.89 28.1228 175.645 31.6946 175.645 39.2419C175.645 46.7892 169.859 50.2361 164.717 50.2361C159.575 50.2361 153.758 46.7872 153.758 39.0565ZM172.554 41.6744C172.095 35.1142 168.422 28.9245 163.125 28.9245C158.962 28.9245 156.604 32.19 156.942 37.178C157.37 43.3384 161.258 49.2822 166.462 49.2822C171.147 49.2822 172.83 45.7397 172.554 41.6744Z" fill="#12303F"/>
<path d="M177.727 49.4968C178.737 49.1573 178.95 48.2346 178.95 46.0167V32.2798C178.95 30.0618 178.737 29.1391 177.727 28.7997V28.3686H184.156C191.137 28.3686 192.728 31.8487 192.728 34.3436C192.728 38.1943 189.973 41.4579 183.697 41.4579H182.196V46.0167C182.196 48.2346 182.409 49.1573 183.421 49.4968V49.9279H177.727V49.4968ZM189.267 35.1454C189.267 32.4963 187.982 28.8621 183.144 28.8621C182.838 28.8621 182.409 28.8933 182.196 28.9245V40.9663H183.544C187.553 40.9663 189.267 38.6254 189.267 35.1454Z" fill="#12303F"/>
<path d="M97.2383 57.4676C97.2383 55.8348 98.4812 54.6546 100.151 54.6546C101.037 54.6546 101.797 54.9745 102.301 55.5695L101.649 56.1859C101.254 55.7568 100.763 55.5461 100.197 55.5461C99.0706 55.5461 98.2562 56.342 98.2562 57.4676C98.2562 58.5931 99.0726 59.389 100.197 59.389C100.763 59.389 101.254 59.1783 101.649 58.7414L102.301 59.3656C101.797 59.9586 101.035 60.2805 100.143 60.2805C98.4812 60.2805 97.2383 59.1003 97.2383 57.4676Z" fill="#12303F"/>
<path d="M104.047 54.7324H105.057V59.342H107.9V60.2022H104.047V54.7324Z" fill="#12303F"/>
<path d="M113.554 59.3498V60.2022H109.477V54.7324H113.446V55.5849H110.487V57.007H113.112V57.8438H110.487V59.3517H113.554V59.3498Z" fill="#12303F"/>
<path d="M118.982 58.9362H116.264L115.729 60.2022H114.688L117.135 54.7324H118.129L120.584 60.2022H119.527L118.984 58.9362H118.982ZM118.647 58.1384L117.621 55.7468L116.603 58.1384H118.645H118.647Z" fill="#12303F"/>
<path d="M126.879 54.7324V60.2022H126.047L123.049 56.4978V60.2022H122.047V54.7324H122.879L125.876 58.4368V54.7324H126.879Z" fill="#12303F"/>
<path d="M129.115 54.7324H130.125V60.2022H129.115V54.7324Z" fill="#12303F"/>
<path d="M137.199 54.7324V60.2022H136.367L133.37 56.4978V60.2022H132.367V54.7324H133.199L136.197 58.4368V54.7324H137.199Z" fill="#12303F"/>
<path d="M143.148 57.4049H144.104V59.5858C143.538 60.0461 142.745 60.2802 141.977 60.2802C140.292 60.2802 139.049 59.1 139.049 57.4673C139.049 55.8345 140.292 54.6544 141.992 54.6544C142.902 54.6544 143.662 54.9587 144.174 55.5458L143.538 56.1701C143.111 55.7409 142.62 55.5458 142.039 55.5458C140.881 55.5458 140.067 56.3339 140.067 57.4673C140.067 58.6006 140.883 59.3887 142.031 59.3887C142.419 59.3887 142.799 59.3107 143.15 59.1078V57.4049H143.148Z" fill="#12303F"/>
<path d="M148.668 59.6228L149.017 58.8328C149.451 59.1839 150.144 59.4336 150.811 59.4336C151.658 59.4336 152.015 59.1293 152.015 58.7236C152.015 57.5434 148.784 58.3178 148.784 56.2852C148.784 55.4015 149.482 54.6524 150.973 54.6524C151.627 54.6524 152.309 54.8241 152.782 55.1362L152.464 55.9243C151.976 55.6356 151.439 55.4951 150.966 55.4951C150.126 55.4951 149.785 55.8229 149.785 56.2364C149.785 57.401 153.007 56.6422 153.007 58.6514C153.007 59.5273 152.302 60.2763 150.811 60.2763C149.963 60.2763 149.118 60.011 148.668 59.6209V59.6228Z" fill="#12303F"/>
<path d="M158.865 59.3498V60.2022H154.787V54.7324H158.756V55.5849H155.797V57.007H158.423V57.8438H155.797V59.3517H158.865V59.3498Z" fill="#12303F"/>
<path d="M164.324 60.2022L163.213 58.6007C163.143 58.6085 163.073 58.6085 163.003 58.6085H161.776V60.2022H160.766V54.7324H163.003C164.432 54.7324 165.318 55.4678 165.318 56.6773C165.318 57.5063 164.9 58.115 164.161 58.4037L165.411 60.2003H164.324V60.2022ZM162.957 55.5927H161.776V57.7716H162.957C163.843 57.7716 164.3 57.3659 164.3 56.6773C164.3 55.9887 163.843 55.5907 162.957 55.5907V55.5927Z" fill="#12303F"/>
<path d="M172.189 54.7324L169.819 60.2022H168.824L166.447 54.7324H167.543L169.352 58.9518L171.176 54.7324H172.187H172.189Z" fill="#12303F"/>
<path d="M173.539 54.7324H174.549V60.2022H173.539V54.7324Z" fill="#12303F"/>
<path d="M176.406 57.4673C176.406 55.8345 177.649 54.6544 179.319 54.6544C180.205 54.6544 180.965 54.9743 181.469 55.5692L180.817 56.1857C180.422 55.7565 179.931 55.5458 179.365 55.5458C178.239 55.5458 177.424 56.3417 177.424 57.4673C177.424 58.5928 178.241 59.3887 179.365 59.3887C179.931 59.3887 180.422 59.1781 180.817 58.7411L181.469 59.3653C180.965 59.9583 180.203 60.2802 179.311 60.2802C177.649 60.2802 176.406 59.1 176.406 57.4673Z" fill="#12303F"/>
<path d="M187.293 59.3498V60.2022H183.215V54.7324H187.184V55.5849H184.225V57.007H186.85V57.8438H184.225V59.3517H187.293V59.3498Z" fill="#12303F"/>
<path d="M188.738 59.6228L189.087 58.8328C189.522 59.1839 190.214 59.4336 190.881 59.4336C191.728 59.4336 192.085 59.1293 192.085 58.7235C192.085 57.5434 188.855 58.3178 188.855 56.2852C188.855 55.4015 189.553 54.6524 191.044 54.6524C191.695 54.6524 192.38 54.8241 192.853 55.1362L192.535 55.9243C192.046 55.6356 191.509 55.4951 191.036 55.4951C190.196 55.4951 189.855 55.8228 189.855 56.2364C189.855 57.401 193.078 56.6421 193.078 58.6514C193.078 59.5272 192.372 60.2763 190.881 60.2763C190.034 60.2763 189.188 60.011 188.738 59.6209V59.6228Z" fill="#12303F"/>
<path d="M5.18539 50.6862C-2.43594 41.1982 -1.52455 28.0227 8.57339 19.8127C16.6218 13.2681 30.0417 11.5473 39.4726 23.2876C48.8639 34.9792 44.2123 47.7118 36.2101 54.2187C28.1132 60.8009 14.8475 62.7144 5.1876 50.6884L5.18539 50.6862ZM37.7026 30.9838C28.7891 21.3586 15.3384 16.3732 7.09843 23.0728C0.621839 28.3394 1.0335 36.3989 7.79188 43.7363C16.1573 52.7769 29.6344 57.1067 37.7313 50.5245C45.018 44.6001 43.2128 36.9592 37.7026 30.9838Z" fill="#E3B22E"/>
<path d="M31.1312 48.859C24.7646 54.0349 15.9193 53.4169 10.4114 46.5579C6.01951 41.0897 4.86377 31.9738 12.7427 25.5688C20.5885 19.1881 29.1345 22.3486 33.5021 27.7858C37.9204 33.285 39.2038 42.2967 31.1334 48.859H31.1312ZM17.9072 26.7714C11.4482 32.8265 8.10206 41.9645 12.5974 47.5612C16.1329 51.9619 21.5418 51.6806 26.4663 47.0894C32.5335 41.4064 35.4394 32.2529 31.0233 26.7515C27.0475 21.8015 21.9204 23.0285 17.9072 26.7714Z" fill="#E3B22E"/>
<path d="M13.9593 43.4462C10.4062 39.0234 10.8311 32.8819 15.5377 29.0548C19.2889 26.0051 25.5454 25.2012 29.9394 30.6738C34.3181 36.1243 32.1475 42.0598 28.4183 45.0917C24.645 48.1614 18.4612 49.0517 13.9571 43.4462H13.9593ZM29.1161 34.2617C24.962 29.7746 18.6902 27.4513 14.8509 30.5741C11.8305 33.0281 12.0242 36.7865 15.1745 40.206C19.0732 44.4207 25.3561 46.4383 29.1293 43.3709C32.5261 40.6091 31.683 37.0478 29.1161 34.2617Z" fill="#E3B22E"/>
<path d="M15.1156 35.1342C16.1524 31.2694 19.8068 28.9772 23.9191 30.0934C27.197 30.9837 30.235 34.2394 28.9515 39.021C27.6725 43.7827 23.4149 44.992 20.1568 44.1061C16.8591 43.2091 13.7991 40.0332 15.1156 35.1342ZM26.5806 40.0287C27.4061 35.7942 26.1315 31.2384 22.7765 30.326C20.1392 29.6084 18.0897 31.2717 17.4535 34.4919C16.6764 38.4673 18.1293 42.9035 21.4271 43.8004C24.3946 44.6066 26.0633 42.6532 26.5806 40.0287Z" fill="#E3B22E"/>
</svg>
