<svg width="1080" height="1081" viewBox="0 0 1080 1081" fill="none" xmlns="http://www.w3.org/2000/svg">
<g clip-path="url(#clip0_50_2)">
<path d="M298.283 717.234C198.966 594.336 210.843 423.673 342.433 317.328C447.315 232.556 622.195 210.266 745.093 362.339C867.474 513.781 806.857 678.706 702.578 762.99C597.065 848.25 424.193 873.036 298.312 717.262L298.283 717.234ZM722.028 462.028C605.872 337.352 430.59 272.776 323.213 359.556C238.813 427.775 244.178 532.17 332.249 627.212C441.262 744.315 616.888 800.399 722.401 715.139C817.357 638.4 793.833 539.428 722.028 462.028Z" fill="url(#paint0_linear_50_2)"/>
<path d="M636.396 693.566C553.431 760.609 438.165 752.605 366.388 663.76C309.156 592.93 294.095 474.852 396.768 391.887C499.011 309.238 610.376 350.175 667.293 420.603C724.869 491.835 741.594 608.565 636.425 693.566H636.396ZM464.069 407.464C379.9 485.896 336.295 604.262 394.875 676.755C440.947 733.758 511.433 730.114 575.607 670.645C654.67 597.032 692.538 478.466 634.99 407.206C583.181 343.089 516.367 358.982 464.069 407.464Z" fill="url(#paint1_linear_50_2)"/>
<path d="M412.604 623.454C366.302 566.165 371.839 486.614 433.173 437.042C482.057 397.539 563.587 387.126 620.847 458.013C677.907 528.613 649.621 605.496 601.024 644.769C551.854 684.53 471.27 696.063 412.575 623.454H412.604ZM610.118 504.487C555.985 446.366 474.254 416.272 424.222 456.722C384.863 488.508 387.387 537.191 428.439 581.484C479.245 636.077 561.12 662.211 610.29 622.479C654.555 586.706 643.568 540.576 610.118 504.487Z" fill="url(#paint2_linear_50_2)"/>
<path d="M427.693 515.789C441.205 465.729 488.826 436.037 542.415 450.496C585.131 462.028 624.72 504.199 607.995 566.136C591.328 627.814 535.846 643.478 493.388 632.003C450.414 620.384 410.538 579.246 427.693 515.789ZM577.098 579.189C587.856 524.338 571.246 465.327 527.526 453.508C493.158 444.213 466.45 465.758 458.159 507.47C448.033 558.964 466.967 616.425 509.941 628.044C548.612 638.486 570.357 613.184 577.098 579.189Z" fill="url(#paint3_linear_50_2)"/>
</g>
<defs>
<linearGradient id="paint0_linear_50_2" x1="478.962" y1="306.452" x2="721.931" y2="763.116" gradientUnits="userSpaceOnUse">
<stop stop-color="#FFDA77"/>
<stop offset="1" stop-color="#F2C038"/>
</linearGradient>
<linearGradient id="paint1_linear_50_2" x1="487.696" y1="383.608" x2="652.154" y2="691.987" gradientUnits="userSpaceOnUse">
<stop stop-color="#FFDA77"/>
<stop offset="1" stop-color="#F2C038"/>
</linearGradient>
<linearGradient id="paint2_linear_50_2" x1="496.809" y1="431.972" x2="610.067" y2="644.829" gradientUnits="userSpaceOnUse">
<stop stop-color="#FFDA77"/>
<stop offset="1" stop-color="#F2C038"/>
</linearGradient>
<linearGradient id="paint3_linear_50_2" x1="503.558" y1="464.934" x2="582.735" y2="613.3" gradientUnits="userSpaceOnUse">
<stop stop-color="#FFDA77"/>
<stop offset="1" stop-color="#F2C038"/>
</linearGradient>
<clipPath id="clip0_50_2">
<rect width="1080" height="1080" fill="white" transform="translate(0 0.748047)"/>
</clipPath>
</defs>
</svg>
