<svg width="26" height="26" viewBox="0 0 26 26" fill="none" xmlns="http://www.w3.org/2000/svg">
<path d="M12.9998 22.0333C10.7918 19.3667 8.9998 17.7133 8.9998 15C8.9998 12.2867 11.0038 10.3333 13.0038 10.3333C15.0038 10.3333 16.9998 12.2853 16.9998 15C16.9998 17.7147 15.2078 19.3667 12.9998 22.0333ZM12.9998 22.0333C10.3331 25.4267 5.02647 25.616 2.7998 24.0693C0.571804 22.5227 0.539804 19.32 2.00514 15.9267C3.4718 12.5347 5.42514 8.464 9.33447 3.036C10.6158 1.61067 11.5291 1 12.9958 1M12.9998 22.0333C15.6665 25.4267 20.9731 25.616 23.1998 24.0693C25.4278 22.5227 25.4598 19.32 23.9945 15.9267C22.5278 12.5347 20.5745 8.464 16.6651 3.036C15.3838 1.61067 14.4705 1 13.0038 1" stroke="#FAFCFE" stroke-width="2" stroke-linecap="round" stroke-linejoin="round"/>
</svg>
