<svg width="30" height="30" viewBox="0 0 30 30" fill="none" xmlns="http://www.w3.org/2000/svg">
<path d="M27 28.3333H3M24.3333 28.3333V19M5.66667 28.3333V19" stroke="#FAFCFE" stroke-width="2" stroke-linecap="round"/>
<path d="M21.0381 1.66675H8.96341C7.35941 1.66675 6.55808 1.66675 5.91408 2.06541C5.26874 2.46275 4.91008 3.18008 4.19408 4.61475L2.32074 9.34675C1.88874 10.4401 1.51008 11.7281 2.23808 12.6521C2.58103 13.0881 3.05144 13.4063 3.58377 13.5624C4.1161 13.7185 4.68386 13.7047 5.20797 13.5229C5.73208 13.3411 6.18645 13.0004 6.50779 12.5482C6.82913 12.096 7.00145 11.5548 7.00074 11.0001C7.00074 11.7073 7.28169 12.3856 7.78179 12.8857C8.28189 13.3858 8.96017 13.6667 9.66741 13.6667C10.3747 13.6667 11.0529 13.3858 11.553 12.8857C12.0531 12.3856 12.3341 11.7073 12.3341 11.0001C12.3341 11.7073 12.615 12.3856 13.1151 12.8857C13.6152 13.3858 14.2935 13.6667 15.0007 13.6667C15.708 13.6667 16.3863 13.3858 16.8864 12.8857C17.3865 12.3856 17.6674 11.7073 17.6674 11.0001C17.6674 11.7073 17.9484 12.3856 18.4485 12.8857C18.9486 13.3858 19.6268 13.6667 20.3341 13.6667C21.0413 13.6667 21.7196 13.3858 22.2197 12.8857C22.7198 12.3856 23.0007 11.7073 23.0007 11.0001C23.0007 11.5544 23.1733 12.0949 23.4947 12.5466C23.8161 12.9982 24.2702 13.3384 24.7939 13.52C25.3176 13.7016 25.8849 13.7154 26.4169 13.5596C26.9488 13.4038 27.419 13.0862 27.7621 12.6507C28.4901 11.7267 28.1114 10.4387 27.6794 9.34542L25.8074 4.61475C25.0914 3.18008 24.7327 2.46275 24.0874 2.06541C23.4434 1.66675 22.6421 1.66675 21.0381 1.66675Z" stroke="#FAFCFE" stroke-width="2" stroke-linejoin="round"/>
</svg>
