<svg width="30" height="30" viewBox="0 0 30 30" fill="none" xmlns="http://www.w3.org/2000/svg">
<path d="M27.0013 8.99984L21.668 11.6665M21.668 11.6665L21.0013 11.9998L15.0013 14.9998M21.668 11.6665V16.3332M21.668 11.6665L9.0013 4.99984M15.0013 14.9998L3.0013 8.99984M15.0013 14.9998V27.6665M19.772 3.50917L22.4386 4.90917C25.3066 6.4145 26.7413 7.1665 27.5386 8.51984C28.3346 9.87184 28.3346 11.5558 28.3346 14.9225V15.0785C28.3346 18.4438 28.3346 20.1278 27.5386 21.4798C26.7413 22.8332 25.3066 23.5865 22.4386 25.0918L19.772 26.4905C17.4306 27.7185 16.26 28.3332 15.0013 28.3332C13.7426 28.3332 12.572 27.7198 10.2306 26.4905L7.56397 25.0905C4.69597 23.5852 3.2613 22.8332 2.46397 21.4798C1.66797 20.1278 1.66797 18.4438 1.66797 15.0798V14.9238C1.66797 11.5572 1.66797 9.87317 2.46397 8.52117C3.2613 7.16784 4.69597 6.4145 7.56397 4.9105L10.2306 3.5105C12.572 2.28117 13.7426 1.6665 15.0013 1.6665C16.26 1.6665 17.4306 2.27984 19.772 3.50917Z" stroke="#FAFCFE" stroke-width="2" stroke-linecap="round"/>
</svg>
